<svg width="571" height="61" viewBox="0 0 571 61" fill="none" xmlns="http://www.w3.org/2000/svg">
<rect x="5" y="5" width="566" height="56" fill="#101010"/>
<rect width="566" height="56" fill="#FFFF00"/>
<path d="M235.555 17.8281V22.75H238.438V25.2109H235.555V30.2969H232.555V17.8281H235.555ZM219.5 28.9844V19.0234H222.5V26.5117C225.09 26.4766 227.867 26.2539 230.82 25.6562L231.172 28.0703C227.656 28.7617 224.34 28.9844 221.328 28.9844H219.5ZM221.211 34.8438C221.211 32.2188 224.094 30.5312 228.523 30.5547C232.906 30.5312 235.754 32.2188 235.766 34.8438C235.754 37.5508 232.906 39.1797 228.523 39.1797C224.094 39.1797 221.211 37.5508 221.211 34.8438ZM224.164 34.8438C224.141 36.1328 225.758 36.8125 228.523 36.8125C231.207 36.8125 232.812 36.1328 232.812 34.8438C232.812 33.5664 231.207 32.9453 228.523 32.9453C225.758 32.9453 224.141 33.5664 224.164 34.8438ZM250.25 19.5859V29.8281H240.008V19.5859H250.25ZM242.469 38.7812V31.8672H245.445V36.3906H257.07V38.7812H242.469ZM242.961 27.4844H247.297V21.9766H242.961V27.4844ZM253.297 33.3906V17.8281H256.297V23.9688H259.18V26.4297H256.297V33.3906H253.297ZM275.258 31.1172C279.922 31.1172 282.852 32.5938 282.875 35.1484C282.852 37.668 279.922 39.168 275.258 39.1562C270.629 39.168 267.652 37.668 267.664 35.1484C267.652 32.5938 270.629 31.1172 275.258 31.1172ZM265.695 29.7578V27.3438H272.961V23.6172H275.914V27.3438H285.055V29.7578H265.695ZM267.875 21.1328V18.7891H282.758V20.5234C282.77 22.2227 282.77 24.0508 282.148 26.2422L279.219 25.9609C279.699 24.0273 279.758 22.5859 279.781 21.1328H267.875ZM270.641 35.1484C270.629 36.2969 272.316 36.8828 275.258 36.8828C278.199 36.8828 279.898 36.2969 279.898 35.1484C279.898 33.9648 278.199 33.332 275.258 33.3438C272.316 33.332 270.629 33.9648 270.641 35.1484ZM305.891 29.6875V32.1016H301.32V39.1562H298.273V32.1016H293.914V39.1562H290.844V32.1016H286.367V29.6875H305.891ZM288.336 23.3594C288.324 20.418 291.488 18.543 296.07 18.5312C300.652 18.543 303.852 20.418 303.852 23.3594C303.852 26.2305 300.652 28.0586 296.07 28.0469C291.488 28.0586 288.324 26.2305 288.336 23.3594ZM291.406 23.3594C291.395 24.8594 293.211 25.6914 296.07 25.7031C298.953 25.6914 300.758 24.8594 300.758 23.3594C300.758 21.7891 298.953 20.9336 296.07 20.9219C293.211 20.9336 291.395 21.7891 291.406 23.3594ZM323.961 17.8281V26.1719H327.102V28.6328H323.961V39.1562H321.008V17.8281H323.961ZM307.016 23.4062V21.0156H311.844V18.1562H314.844V21.0156H319.555V23.4062H307.016ZM307.883 29.6875C307.871 26.7109 310.191 24.5898 313.344 24.6016C316.449 24.5898 318.781 26.7109 318.781 29.6875C318.781 32.6641 316.449 34.7617 313.344 34.7734C310.191 34.7617 307.871 32.6641 307.883 29.6875ZM310.742 29.6875C310.742 31.3398 311.832 32.3242 313.344 32.3125C314.832 32.3242 315.922 31.3398 315.922 29.6875C315.922 28.0469 314.832 27.0391 313.344 27.0156C311.832 27.0391 310.742 28.0469 310.742 29.6875ZM345.805 17.8281V39.1562H342.781V17.8281H345.805ZM327.945 33.1094C333.453 30.5078 335.879 27.1328 336.359 22.3984H329.094V20.0547H339.406C339.395 26.5234 337.133 31.9023 329.516 35.5L327.945 33.1094Z" fill="black"/>
</svg>
