<svg width="99" height="90" viewBox="0 0 99 90" fill="none" xmlns="http://www.w3.org/2000/svg">
<path d="M6.31934 72.8398C6.30273 75.5459 7.46484 78.2852 9.88867 79.4473L8.61035 81.1406C6.9917 80.3438 5.9043 78.8496 5.27344 77.0234C4.61768 78.9824 3.44727 80.5845 1.7373 81.4229L0.425781 79.7129C2.98242 78.5342 4.19434 75.6455 4.19434 72.8398V70.582H6.31934V72.8398ZM12.6777 69.4199V75.2471H14.9023V77.04H12.6777V84.5273H10.5527V69.4199H12.6777ZM21.3438 72.4082C21.3438 74.2178 22.4561 76.0605 24.9463 76.8076L23.8672 78.4678C22.1738 77.9365 20.9785 76.8491 20.2979 75.4795C19.6089 76.9653 18.3804 78.1606 16.6123 78.75L15.5166 77.0898C18.0234 76.2764 19.1855 74.3174 19.1855 72.4082V72.1924H16.0811V70.499H24.3818V72.1924H21.3438V72.4082ZM28.1006 69.4365V80.3604H25.9756V69.4365H28.1006ZM28.499 82.5684V84.2617H17.9736V79.3643H20.1152V82.5684H28.499ZM35.8535 70.416L31.9688 84.8096H29.8604L33.7285 70.416H35.8535ZM40.668 70.2334C41.8716 70.2334 42.9258 70.6733 43.6562 71.4121H47.0762V69.4199H49.1846V78.2686H47.0762V76.459H43.6396C42.9092 77.1895 41.8633 77.6294 40.668 77.6211C38.377 77.6377 36.6338 76.0605 36.6504 73.9355C36.6338 71.7773 38.377 70.2334 40.668 70.2334ZM40.668 72.043C39.4893 72.043 38.6426 72.7402 38.6592 73.9355C38.6426 75.0977 39.4893 75.8447 40.668 75.8281C41.8135 75.8447 42.6436 75.0977 42.6436 73.9355C42.6436 72.7402 41.8135 72.043 40.668 72.043ZM44.0215 78.584C47.2256 78.584 49.2178 79.6797 49.2344 81.5557C49.2178 83.4316 47.2256 84.5273 44.0215 84.5273C40.834 84.5273 38.8252 83.4316 38.8252 81.5557C38.8252 79.6797 40.834 78.584 44.0215 78.584ZM44.0215 80.1943C42.0127 80.1943 40.9004 80.6426 40.9004 81.5557C40.9004 82.4355 42.0127 82.8838 44.0215 82.8838C46.0635 82.8838 47.1592 82.4355 47.1592 81.5557C47.1592 80.6426 46.0635 80.1943 44.0215 80.1943ZM44.5693 73.0889C44.6191 73.3545 44.6523 73.645 44.6523 73.9355C44.6523 74.2261 44.6191 74.5 44.5693 74.7656H47.0762V73.0889H44.5693ZM56.6553 71.7939C56.6553 73.6201 57.7178 75.3799 60.1084 76.127L58.9795 77.7705C57.3774 77.2393 56.2568 76.21 55.6094 74.8818C54.9536 76.4092 53.7832 77.6045 52.0566 78.1855L50.9111 76.5254C53.4346 75.6787 54.5137 73.6699 54.5303 71.5947V70.2168H56.6553V71.7939ZM63.1299 69.4199V72.9561H65.1719V74.7158H63.1299V78.3848H61.0049V69.4199H63.1299ZM58.1826 78.6836C61.3037 78.6836 63.2793 79.7627 63.2793 81.6055C63.2793 83.4648 61.3037 84.5273 58.1826 84.5273C54.9951 84.5273 53.0029 83.4648 53.0029 81.6055C53.0029 79.7627 54.9951 78.6836 58.1826 78.6836ZM58.1826 80.3438C56.1904 80.3438 55.1113 80.7754 55.1279 81.6055C55.1113 82.4688 56.1904 82.8672 58.1826 82.8672C60.1416 82.8672 61.1875 82.4688 61.1875 81.6055C61.1875 80.7754 60.1416 80.3438 58.1826 80.3438ZM83.5332 78.4678V80.1943H77.6729V84.5439H75.5811V80.1943H69.7539V78.4678H83.5332ZM82.2715 71.1631V72.8232H77.7393C77.98 74.1514 79.6816 75.6455 82.8027 75.9941L82.0391 77.6543C79.4824 77.3638 77.6313 76.3179 76.6436 74.9316C75.6641 76.3345 73.7964 77.3638 71.2148 77.6543L70.4512 75.9941C73.5723 75.6455 75.2905 74.1597 75.5479 72.8232H70.999V71.1631H75.5811V69.4365H77.6729V71.1631H82.2715ZM96.3662 69.4199V75.2139H98.5078V76.957H96.3662V84.4941H94.2412V69.4199H96.3662ZM92.332 70.9639C92.3154 75.4795 90.5557 79.3975 85.4756 81.8877L84.2803 80.2607C87.8579 78.4678 89.7754 76.0605 90.1738 72.6904H85.1436V70.9639H92.332Z" fill="black"/>
<path d="M50 5.625C45.1791 5.625 40.4664 7.05457 36.458 9.73293C32.4495 12.4113 29.3253 16.2181 27.4804 20.6721C25.6356 25.126 25.1529 30.027 26.0934 34.7553C27.0339 39.4836 29.3554 43.8268 32.7643 47.2357C36.1732 50.6446 40.5164 52.9661 45.2447 53.9066C49.973 54.8472 54.874 54.3644 59.3279 52.5196C63.7819 50.6747 67.5887 47.5505 70.2671 43.542C72.9454 39.5336 74.375 34.8209 74.375 30C74.3682 23.5374 71.7979 17.3415 67.2282 12.7718C62.6585 8.20209 56.4626 5.63182 50 5.625ZM50 50.625C45.9208 50.625 41.9331 49.4154 38.5414 47.1491C35.1496 44.8828 32.5061 41.6616 30.945 37.8928C29.3839 34.1241 28.9755 29.9771 29.7713 25.9763C30.5671 21.9754 32.5315 18.3004 35.4159 15.4159C38.3004 12.5315 41.9754 10.5671 45.9763 9.7713C49.9771 8.97548 54.1241 9.38393 57.8929 10.945C61.6616 12.506 64.8828 15.1496 67.1491 18.5414C69.4154 21.9331 70.625 25.9208 70.625 30C70.6188 35.4682 68.4438 40.7106 64.5772 44.5772C60.7106 48.4438 55.4682 50.6188 50 50.625ZM61.25 30C61.25 30.4973 61.0525 30.9742 60.7008 31.3258C60.3492 31.6775 59.8723 31.875 59.375 31.875H51.875V39.375C51.875 39.8723 51.6775 40.3492 51.3258 40.7008C50.9742 41.0525 50.4973 41.25 50 41.25C49.5027 41.25 49.0258 41.0525 48.6742 40.7008C48.3226 40.3492 48.125 39.8723 48.125 39.375V31.875H40.625C40.1277 31.875 39.6508 31.6775 39.2992 31.3258C38.9476 30.9742 38.75 30.4973 38.75 30C38.75 29.5027 38.9476 29.0258 39.2992 28.6742C39.6508 28.3225 40.1277 28.125 40.625 28.125H48.125V20.625C48.125 20.1277 48.3226 19.6508 48.6742 19.2992C49.0258 18.9475 49.5027 18.75 50 18.75C50.4973 18.75 50.9742 18.9475 51.3258 19.2992C51.6775 19.6508 51.875 20.1277 51.875 20.625V28.125H59.375C59.8723 28.125 60.3492 28.3225 60.7008 28.6742C61.0525 29.0258 61.25 29.5027 61.25 30Z" fill="#101010"/>
</svg>
