<svg width="107" height="23" viewBox="0 0 107 23" fill="none" xmlns="http://www.w3.org/2000/svg">
<path d="M16.9336 0.828125V5.75H19.8164V8.21094H16.9336V13.2969H13.9336V0.828125H16.9336ZM0.878906 11.9844V2.02344H3.87891V9.51172C6.46875 9.47656 9.24609 9.25391 12.1992 8.65625L12.5508 11.0703C9.03516 11.7617 5.71875 11.9844 2.70703 11.9844H0.878906ZM2.58984 17.8438C2.58984 15.2188 5.47266 13.5312 9.90234 13.5547C14.2852 13.5312 17.1328 15.2188 17.1445 17.8438C17.1328 20.5508 14.2852 22.1797 9.90234 22.1797C5.47266 22.1797 2.58984 20.5508 2.58984 17.8438ZM5.54297 17.8438C5.51953 19.1328 7.13672 19.8125 9.90234 19.8125C12.5859 19.8125 14.1914 19.1328 14.1914 17.8438C14.1914 16.5664 12.5859 15.9453 9.90234 15.9453C7.13672 15.9453 5.51953 16.5664 5.54297 17.8438ZM31.6289 2.58594V12.8281H21.3867V2.58594H31.6289ZM23.8477 21.7812V14.8672H26.8242V19.3906H38.4492V21.7812H23.8477ZM24.3398 10.4844H28.6758V4.97656H24.3398V10.4844ZM34.6758 16.3906V0.828125H37.6758V6.96875H40.5586V9.42969H37.6758V16.3906H34.6758ZM64.2305 1.69531V3.14844C64.2422 4.51953 64.2422 6.23047 63.8203 8.375H66.5508V10.7188H47.0273V8.375H60.8086C61.1484 6.64062 61.2188 5.24609 61.2422 4.0625H49.418V1.69531H64.2305ZM49.2305 14.5391V12.2188H64.1367V18.1953H52.2305V19.6953H64.7227V21.9922H49.2539V15.9453H61.1836V14.5391H49.2305ZM74.7305 4.8125C74.7188 6.86328 75.4805 9.16016 77.4961 10.6133C79.5 9.17188 80.2617 6.875 80.2617 4.8125V2.35156H83.2852V4.8125C83.2734 7.40234 84.3867 10.0039 87.3398 11.2109L85.7461 13.4375C83.7773 12.6055 82.4883 11.0938 81.75 9.24219C81 11.1992 79.6523 12.8633 77.4961 13.7422C75.3164 12.8633 73.9453 11.1758 73.207 9.21875C72.457 11.0586 71.168 12.582 69.2227 13.4375L67.6758 11.2109C70.5469 9.96875 71.7188 7.29688 71.7305 4.8125V2.35156H74.7305V4.8125ZM67.7695 19.5078V17.0938H87.2227V19.5078H67.7695ZM106.441 0.828125V22.1562H103.418V0.828125H106.441ZM88.582 16.1094C94.0898 13.5078 96.5156 10.1328 96.9961 5.39844H89.7305V3.05469H100.043C100.031 9.52344 97.7695 14.9023 90.1523 18.5L88.582 16.1094Z" fill="black"/>
</svg>
